<svg width="242" height="24" viewBox="0 0 242 24" fill="none" xmlns="http://www.w3.org/2000/svg">
<line x1="90.8334" y1="5.73199" x2="178.167" y2="5.73199" stroke="#D9D9FF" stroke-opacity="0.25"/>
<line x1="90.8334" y1="7.93201" x2="178.167" y2="7.93201" stroke="#D9D9FF" stroke-opacity="0.25"/>
<line x1="90.8334" y1="10.132" x2="178.167" y2="10.132" stroke="#D9D9FF" stroke-opacity="0.25"/>
<line x1="90.8334" y1="12.332" x2="178.167" y2="12.332" stroke="#D9D9FF" stroke-opacity="0.25"/>
<line x1="90.8334" y1="14.532" x2="178.167" y2="14.532" stroke="#D9D9FF" stroke-opacity="0.25"/>
<line x1="90.8334" y1="16.732" x2="178.167" y2="16.732" stroke="#D9D9FF" stroke-opacity="0.5"/>
<line x1="89.4991" y1="22.7209" x2="89.4991" y2="0.743109" stroke="#D9D9FF" stroke-opacity="0.25"/>
<line x1="134" y1="22.7209" x2="134" y2="0.743109" stroke="#D9D9FF" stroke-opacity="0.25"/>
<line x1="178.501" y1="22.7209" x2="178.501" y2="0.743109" stroke="#D9D9FF" stroke-opacity="0.25"/>
<path d="M125 13.12C76.125 13.12 10 2 10 2V17.232H240V4.928C240 4.928 173.875 13.12 125 13.12Z" fill="url(#paint0_linear_16_5323)"/>
<path d="M10 2C10 2 76.125 13.12 125 13.12C173.875 13.12 240 4.928 240 4.928" stroke="#3CC3DF"/>
<circle cx="10" cy="2" r="1.5" fill="#1A1F26" stroke="#3CC3DF"/>
<circle cx="125" cy="13.12" r="1.5" fill="#1A1F26" stroke="#3CC3DF"/>
<circle cx="240" cy="4.92801" r="1.5" fill="#1A1F26" stroke="#3CC3DF"/>
<path d="M125 5.40799C85.9 6.931 10 13.504 10 13.504V17.232H240V3.29599C240 3.29599 164.1 3.88498 125 5.40799Z" fill="url(#paint1_linear_16_5323)"/>
<path d="M10 13.504C10 13.504 85.9 6.54365 125 5.40799C164.1 4.27233 240 3.29599 240 3.29599" stroke="#FF928A"/>
<circle cx="10" cy="13.504" r="1.5" fill="#1A1F26" stroke="#FF928A"/>
<circle cx="125" cy="5.40799" r="1.5" fill="#1A1F26" stroke="#FF928A"/>
<circle cx="240" cy="3.29599" r="1.5" fill="#1A1F26" stroke="#FF928A"/>
<path d="M125 5.664C76.125 5.664 10 2.224 10 2.224V17.232H240V4.416C240 4.416 173.875 5.664 125 5.664Z" fill="url(#paint2_linear_16_5323)"/>
<path d="M10 2.224C10 2.224 76.125 5.664 125 5.664C173.875 5.664 240 4.416 240 4.416" stroke="#8979FF"/>
<circle cx="10" cy="2.224" r="1.5" fill="#1A1F26" stroke="#8979FF"/>
<circle cx="125" cy="5.664" r="1.5" fill="#1A1F26" stroke="#8979FF"/>
<circle cx="240" cy="4.41599" r="1.5" fill="#1A1F26" stroke="#8979FF"/>
<defs>
<linearGradient id="paint0_linear_16_5323" x1="125" y1="2" x2="125" y2="17.232" gradientUnits="userSpaceOnUse">
<stop stop-color="#3CC3DF" stop-opacity="0.3"/>
<stop offset="1" stop-color="#3CC3DF" stop-opacity="0"/>
</linearGradient>
<linearGradient id="paint1_linear_16_5323" x1="125" y1="3.29599" x2="125" y2="17.232" gradientUnits="userSpaceOnUse">
<stop stop-color="#FF928A" stop-opacity="0.3"/>
<stop offset="1" stop-color="#FF928A" stop-opacity="0"/>
</linearGradient>
<linearGradient id="paint2_linear_16_5323" x1="125" y1="2.224" x2="125" y2="17.232" gradientUnits="userSpaceOnUse">
<stop stop-color="#8979FF" stop-opacity="0.3"/>
<stop offset="1" stop-color="#8979FF" stop-opacity="0"/>
</linearGradient>
</defs>
</svg>
