<svg width="24" height="24" viewBox="0 0 24 24" fill="none" xmlns="http://www.w3.org/2000/svg">
<path d="M16.7925 4.8375C15.075 4.8375 13.5525 5.6475 12.57 6.9V6.5475H12.5625C12.4813 5.18218 11.8817 3.89941 10.8865 2.96128C9.89118 2.02314 8.57523 1.50045 7.2075 1.5H1.5C1.5 4.4625 3.9 6.8625 6.8625 6.8625H10.755V16.2075H12.57V10.2075H17.1375C20.1 10.2075 22.5 7.8075 22.5 4.845H16.7925V4.8375Z" fill="#86D72F"/>
<path d="M11.6625 15.75C9.87426 15.75 8.15928 16.4604 6.89482 17.7248C5.63035 18.9893 4.91998 20.7043 4.91998 22.4925H18.4125C18.4125 18.7687 15.3937 15.75 11.6625 15.75Z" fill="#6D4534"/>
</svg>
